[img]http://leetleech.org/images/81582914798091017441.jpg[/img]
[img]http://leetleech.org/images/80466062096578101552.png[/img]
General
Complete name                    : The Uninvited 2009 BRRip Eng-Hindi[~HFR~].mkv
Format                           : Matroska
File size                        : 390 MiB
Duration                         : 1h 27mn
Overall bit rate                 : 625 Kbps
Movie name                       : The Uninvited 2009 BRRip [~HFR~]

Video
ID                               : 1
Format                           : AVC
Format/Info                      : Advanced Video Codec
Format profile                   : Main@L3.0
Format settings, CABAC           : Yes
Format settings, ReFrames        : 4 frames
Muxing mode                      : Header stripping
Codec ID                         : V_MPEG4/ISO/AVC
Duration                         : 1h 27mn
Bit rate                         : 500 Kbps
Width                            : 720 pixels
Height                           : 400 pixels
Display aspect ratio             : 16:9
Frame rate mode                  : Variable
Frame rate                       : 23.810 fps
Color space                      : YUV
Chroma subsampling               : 4:2:0
Bit depth                        : 8 bits
Scan type                        : Progressive
Bits/(Pixel*Frame)               : 0.073
Stream size                      : 303 MiB (78%)
Title                            : The Uninvited 2009 BRRip [~HFR~]
Language                         : English


Audio #1
ID                               : 3
Format                           : MPEG Audio
Format version                   : Version 2
Format profile                   : Layer 3
Mode                             : Joint stereo
Mode extension                   : MS Stereo
Muxing mode                      : Header stripping
Codec ID                         : A_MPEG/L3
Codec ID/Hint                    : MP3
Duration                         : 1h 27mn
Bit rate mode                    : Constant
Bit rate                         : 64.0 Kbps
Channel(s)                       : 2 channels
Sampling rate                    : 22.05 KHz
Stream size                      : 40.0 MiB (10%)
Title                            : The Uninvited 2009 BRRip [~HFR~]
Writing library                  : LAME3.98.2
Language                         : English

Audio #2
ID                               : 4
Format                           : MPEG Audio
Format version                   : Version 2
Format profile                   : Layer 3
Mode                             : Joint stereo
Mode extension                   : MS Stereo
Muxing mode                      : Header stripping
Codec ID                         : A_MPEG/L3
Codec ID/Hint                    : MP3
Duration                         : 1h 27mn
Bit rate mode                    : Constant
Bit rate                         : 64.0 Kbps
Channel(s)                       : 2 channels
Sampling rate                    : 22.05 KHz
Stream size                      : 40.0 MiB (10%)
Title                            : The Uninvited 2009 BRRip [~HFR~]
Writing library                  : LAME3.98.2
Language                         : Hindi

Text
ID                               : 2
Format                           : UTF-8
Codec ID                         : S_TEXT/UTF8
Codec ID/Info                    : UTF-8 Plain Text
Title                            : The Uninvited 2009 BRRip [~HFR~]
Language                         : English



[img]http://leetleech.org/images/37571685308686837845.png[/img]
After the death of her ill mother in a fire, the young teenager Anna tries to commit suicide and is sent to a mental institution for treatment. Ten months later, Anna still cannot remember what had happened on the night her mother died. Her psychiatric Dr. Silberling, however, discharges her telling that she has resolved her issues. Her father and successful writer, Steven, brings her back home in an isolated mansion nearby the coast. Anna finds that her mother's former nurse, Rachel Summers, is her stepmother now. Anna meets her beloved sister, Alex, swimming in the sea. She discovers that Steven has not delivered the letters and CDs that Alex had sent to her. As time moves on, Anna is haunted by ghosts and she believes that Rachel killed her mother. Alex and Anna decide to look for evidences to prove that Rachel is the murderer and Anna discovers the truth about the fire in the boat house.
[img]http://leetleech.org/images/47672446756309998169.png[/img]
[url]http://www.imdb.com/title/tt0815245/[/url]

[img]http://leetleech.org/images/32213758148792891108.png[/img]
Directors: Charles Guard, Thomas Guard
 Writers: Craig Rosenberg (screenplay), Doug Miro (screenplay),  and 2 more credits » 
Stars: Emily Browning, Arielle Kebbel and Elizabeth Banks
[img]http://leetleech.org/images/73962242004612563100.jpg[/img]
Opening Weekend: $10,325,824 (USA) (1 February 2009) (2344 Screens) 
Gross: $28,573,173 (USA) (29 March 2009)
[img]http://leetleech.org/images/30968320715484247309.png[/img]
[img]http://leetleech.org/images/01706158488514066412.jpg[/img]
[img]http://leetleech.org/images/50840656694955217533.jpg[/img]
[img]http://leetleech.org/images/38839031385342373170.jpg[/img]
[img]http://leetleech.org/images/72282698500915712037.jpg[/img]
[img]http://leetleech.org/images/70028567676975384382.jpg[/img]

[img]http://leetleech.org/images/85565807790042668303.gif[/img]
[img]http://leetleech.org/images/18843140288135383398.gif[/img]

[img]http://leetleech.org/images/03321443499000046493.gif[/img]